<svg fill="#fff" xmlns="http://www.w3.org/2000/svg" xmlns:xlink="http://www.w3.org/1999/xlink" x="0px" y="0px" viewBox="0 0 215 75"     style="enable-background:new 0 0 215 75;" xml:space="preserve">
<g>
<path d="M42,4.3L12.8,25.9v45.3H43v-3.5H16.2V27.7L43,7.8V3.6L42,4.3z"></path>
<path d="M43,60.8H23V31.2l20-14.8v-4.3L19.6,29.5v34.8H43V60.8z"></path>	
<path d="M58.9,32.5L43,20.7L26.4,33.1v24.3h33.3V33L58.9,32.5z M43,25l13.3,9.8v19.1H29.7V34.8L43,25z"></path>	
<path d="M202.9,56.4V42.8h-2.2l-5,7.8l-5-7.8h-2.3v13.6h2.3v-9.5l5,7.6l5-7.6v9.5H202.9z M173.6,50.9h-5.8l2.9-5.5L173.6,50.9z   M179.1,56.4l-7.2-13.6h-2.3l-7.2,13.6h2.6l1.6-3.2h8.1l1.7,3.2H179.1z M153.2,56.4V42.8H151v13.6H153.2z M138.4,56.4V42.8h-2.3  v10.1l-8.3-10.1h-2.3v13.6h2.3V46.3l8.3,10.1H138.4z M115.2,56.4v-2.3h-9.7v-3.5h5.2v-2.3h-5.2v-3.1h9.4v-2.3h-11.7v13.6H115.2z   M93.9,42.8h-2.6l-5.5,10.8l-5.5-10.8h-2.6l6.9,13.6h2.2L93.9,42.8z"></path>
</g>
</svg>

