<svg fill="#fff" xmlns="http://www.w3.org/2000/svg" xmlns:xlink="http://www.w3.org/1999/xlink" x="0px" y="0px" viewBox="0 0 100 100" style="enable-background:new 0 0 100 100;" xml:space="preserve"><path d="M94.9,72c0-13-10-23.9-22.7-25.5V15.9H53v-5.8h-6.7c0-4.2-3.3-7.6-7.6-7.6s-7.6,3.3-7.6,7.6h-7v5.5H5.1v81.8h66.7v-0.3 C84.9,95.9,94.9,85,94.9,72z M38.5,8.6c0.9,0,1.5,0.6,1.5,1.5c0,0.6-0.3,0.9-0.3,0.9l-1.2,1.2l-1.2-1.2C37,10.7,37,10.4,37,10.1 C37.3,9.5,37.9,8.6,38.5,8.6z M30.3,16.2H47v5.5H30.3V16.2z M11.2,91.7V22h12.7V28H53V22h12.7v24.6c-1.8,0.3-3.9,0.6-5.5,1.2H16.1v3 h38.5c-1.8,1.2-3.6,2.7-5.2,4.5H16.1v3h31.2c-0.9,1.5-1.5,3-2.1,4.5H16.1v3h27.9c-0.3,1.5-0.6,3-0.6,4.5H16.1v3h27.3 c0,1.5,0.3,3,0.6,4.5H16.1v3h29.1c1.5,4.2,4.2,7.9,7.6,10.6H11.2z M68.8,91.7c-10.9,0-19.7-8.8-19.7-19.7s8.8-19.7,19.7-19.7 S88.5,61.1,88.5,72S79.7,91.7,68.8,91.7z M84.6,67.1L66.4,85.3L53.6,72.6l4.2-4.2l8.5,8.5l13.9-13.9L84.6,67.1z M38.5,35.6H16.1v-3 h22.7v3H38.5z M61.8,43.2H16.1v-3h45.8C61.8,40.1,61.8,43.2,61.8,43.2z"></path></svg>