<svg fill="#fff" xmlns="http://www.w3.org/2000/svg" xmlns:xlink="http://www.w3.org/1999/xlink" x="0px" y="0px" viewBox="0 0 100 100" style="enable-background:new 0 0 100 100;" xml:space="preserve">
<g>
<path d="M42.1,19.5c-12.8,0.5-22.7,11-22.7,23.7c0,0.9,0.1,1.8,0.2,2.7c0.1,1.2,1.2,2.1,2.4,2.1c0.1,0,0.2,0,0.3,0  c1.3-0.1,2.2-1.3,2.1-2.6c-0.1-0.7-0.1-1.4-0.1-2.2c0-10.2,8-18.6,18.2-19c1.3-0.1,2.3-1.2,2.3-2.5C44.6,20.5,43.4,19.5,42.1,19.5z  ">
</path>
<path d="M95.3,89.8L73.6,68c12.7-15.5,11.8-38.5-2.7-53c-15.4-15.4-40.5-15.4-55.9,0C-0.4,30.5-0.4,55.6,15.1,71  c7.7,7.7,17.8,11.6,28,11.6c8.9,0,17.8-3,25-8.9l21.7,21.7c0.8,0.8,1.8,1.2,2.8,1.2c1,0,2-0.4,2.8-1.2  C96.9,93.8,96.9,91.3,95.3,89.8z M65.4,65.4c-12.3,12.3-32.4,12.3-44.7,0C8.3,53.1,8.3,33,20.7,20.7c6.2-6.2,14.3-9.2,22.4-9.2  c8.1,0,16.2,3.1,22.4,9.2C77.7,33,77.7,53.1,65.4,65.4z">
</path>
</g>
</svg>