<?xml version="1.0" encoding="utf-8"?>
<!-- Generator: Adobe Illustrator 27.5.0, SVG Export Plug-In . SVG Version: 6.00 Build 0)  -->
<svg version="1.1" xmlns="http://www.w3.org/2000/svg" xmlns:xlink="http://www.w3.org/1999/xlink" x="0px" y="0px"
	 viewBox="0 0 500 500" style="enable-background:new 0 0 500 500;" xml:space="preserve">
<g id="BACKGROUND">
	<rect style="fill:#FFFFFF;" width="500" height="500"/>
</g>
<g id="OBJECTS">
	<path style="fill:#FFE9E1;" d="M449.049,359.554c-5.3,10.36-11.52,20.32-18.63,29.57c-13.63,17.76-30.51,32.92-50.25,43.36
		c-23.31,12.32-49.68,17.71-75.92,20.4c-1.33,0.14-2.66,0.27-3.99,0.38c-22.27,2.05-44.71,2.21-67.02,0.54
		c-8.1-0.61-16.19-1.46-24.25-2.55c-6.33-0.86-12.63-1.86-18.92-3.01c-1.76-0.32-3.51-0.66-5.27-1c-3.75-0.73-7.5-1.52-11.23-2.36
		c-4.22-0.95-8.43-1.96-12.62-3.05c-17.03-4.4-33.78-9.89-50.1-16.45c-7.44-2.99-16.09-6.02-24.34-9.75
		c-8.9-4.01-17.35-8.85-23.4-15.31c-6.54-6.99-12.09-15.31-16.29-24.27c-5.01-10.68-8.11-22.28-8.71-33.64
		c-1.2-22.82,7.1-45.99,22.51-62.86c11.76-12.88,27.14-21.91,39.78-33.94c29.35-27.91,41.47-69.11,64.56-102.39
		c22.17-31.96,54.93-56.44,91.86-68.66c32.19-10.66,67.91-11.94,99.9-0.66c31.98,11.27,59.72,35.66,72.31,67.14
		c8.25,20.63,9.9,43.26,15.98,64.63c6.1,21.44,16.65,41.61,20.61,63.54C471.149,299.884,463.229,331.794,449.049,359.554z"/>
	<g>
		<g>
			<g>
				<polygon style="fill:#2E2E8E;" points="380.87,143.776 305.797,143.776 305.797,143.011 380.648,143.011 				"/>
				<polygon style="fill:#2E2E8E;" points="383.466,152.568 310.063,152.568 309.71,151.802 383.244,151.802 				"/>
				<polygon style="fill:#2E2E8E;" points="386.239,161.949 314.436,161.949 314.076,161.183 386.017,161.183 				"/>
				<path style="fill:#2E2E8E;stroke:#94A5FF;stroke-width:0.7658;stroke-miterlimit:10;" d="M265.747,193.375"/>
				<g>
					<path style="fill:#2E2E8E;" d="M395.915,254.934H268.763l-0.177-64.371l0.053-0.091l33.054-55.823l0.225,0.007l77.335,2.29
						l15.984,54.146L395.915,254.934z M269.526,254.169h125.615l-0.67-63.015l-15.796-53.459l-76.554-2.268l-32.769,55.344
						L269.526,254.169z"/>
					<path style="fill:#2E2E8E;stroke:#94A5FF;stroke-width:0.7658;stroke-miterlimit:10;" d="M395.527,182.295"/>
					<polygon style="fill:#2E2E8E;" points="328.381,254.551 327.616,254.551 327.616,191.181 301.559,135.2 302.253,134.877 
						328.381,191.096 					"/>
					<path style="fill:#2E2E8E;" d="M266.903,193.483c-0.135,0-0.272-0.036-0.397-0.111c-0.361-0.219-0.477-0.69-0.257-1.052
						l35.003-57.681c0.147-0.242,0.419-0.382,0.697-0.367c0.282,0.016,0.533,0.185,0.652,0.442l25.886,55.615h66.368
						c0.423,0,0.765,0.343,0.765,0.766c0,0.423-0.343,0.766-0.765,0.766h-66.857c-0.297,0-0.569-0.173-0.694-0.443l-25.487-54.758
						l-34.258,56.455C267.414,193.352,267.162,193.483,266.903,193.483z"/>
					<polygon style="fill:#2E2E8E;" points="388.904,170.948 318.617,170.948 318.265,170.182 388.674,170.182 					"/>
					<polygon style="fill:#2E2E8E;" points="391.553,179.938 322.806,179.938 322.446,179.173 391.331,179.173 					"/>
					<path style="fill:#2E2E8E;" d="M304.675,191.453h-16.178v-18.314h16.178V191.453z M289.161,190.788h14.85v-16.985h-14.85
						V190.788z"/>
					<path style="fill:#2E2E8E;" d="M309.055,254.876h-22.962v-50.614h22.962V254.876z M286.742,254.227h21.665V204.91h-21.665
						V254.227z"/>
					<rect x="296.261" y="173.471" style="fill:#2E2E8E;" width="0.649" height="17.649"/>
					<path style="fill:#2E2E8E;" d="M348.103,226.579H337.2v-24.434h10.903V226.579z M337.909,225.87h9.485v-23.015h-9.485V225.87z"
						/>
					<path style="fill:#2E2E8E;" d="M367.51,226.579h-10.902v-24.434h10.902V226.579z M357.317,225.87h9.484v-23.015h-9.484V225.87z
						"/>
					<path style="fill:#2E2E8E;" d="M385.715,226.579h-10.902v-24.434h10.902V226.579z M375.522,225.87h9.484v-23.015h-9.484V225.87
						z"/>
					<g>
						<rect x="327.998" y="240.469" style="fill:#2E2E8E;" width="67.369" height="0.709"/>
						<rect x="327.998" y="237.34" style="fill:#2E2E8E;" width="67.339" height="0.709"/>
						<g>
							<rect x="334.026" y="240.824" style="fill:#2E2E8E;" width="0.709" height="13.728"/>
							<rect x="340.804" y="240.824" style="fill:#2E2E8E;" width="0.709" height="13.728"/>
							<rect x="347.582" y="240.824" style="fill:#2E2E8E;" width="0.709" height="13.728"/>
							<rect x="354.36" y="240.824" style="fill:#2E2E8E;" width="0.709" height="13.728"/>
							<rect x="361.14" y="240.824" style="fill:#2E2E8E;" width="0.709" height="13.728"/>
							<rect x="367.918" y="240.824" style="fill:#2E2E8E;" width="0.709" height="13.728"/>
							<rect x="374.696" y="240.824" style="fill:#2E2E8E;" width="0.709" height="13.728"/>
							<rect x="381.474" y="240.824" style="fill:#2E2E8E;" width="0.709" height="13.728"/>
							<rect x="388.252" y="240.824" style="fill:#2E2E8E;" width="0.709" height="13.728"/>
						</g>
					</g>
				</g>
			</g>
			<line style="fill:none;stroke:#2E2E8E;stroke-miterlimit:10;" x1="84.372" y1="254.882" x2="462.922" y2="254.882"/>
			<g>
				
					<ellipse transform="matrix(0.9989 -0.0476 0.0476 0.9989 -7.5986 6.0692)" style="fill:#94A5FF;" cx="123.537" cy="162.461" rx="26.043" ry="26.043"/>
				
					<ellipse transform="matrix(0.7071 -0.7071 0.7071 0.7071 -103.1179 155.4625)" style="fill:#94A5FF;" cx="136.101" cy="202.206" rx="9.037" ry="9.037"/>
				<circle style="fill:#94A5FF;" cx="100.437" cy="198.286" r="14.085"/>
				<line style="fill:none;stroke:#2E2E8E;stroke-miterlimit:10;" x1="123.537" y1="173.973" x2="123.537" y2="254.243"/>
				<line style="fill:none;stroke:#2E2E8E;stroke-miterlimit:10;" x1="105.506" y1="202.206" x2="123.537" y2="222.535"/>
				<line style="fill:none;stroke:#2E2E8E;stroke-miterlimit:10;" x1="136.101" y1="202.206" x2="123.537" y2="232.296"/>
			</g>
		</g>
		<g>
			<path style="fill:#94A5FF;" d="M337.618,89.851c0,0,5.8-9.44,15.672-9.995s10.149,1.388,12.926,0
				c2.776-1.388,4.969-10.948,18.31-11.305c13.341-0.357,15.84,7.774,22.226,9.817c6.386,2.043,9.995,8.151,9.718,9.817
				c-0.278,1.666-0.278,1.666-0.278,1.666H337.618"/>
			<path style="fill:none;stroke:#2E2E8E;stroke-miterlimit:10;" d="M251.908,114.089c0,0,52.117,0.631,52.208,0
				c0.485-3.345-0.287-8.451-4.827-10.758c-4.663-2.37-13.264-0.189-17.434,2.843c0,0-8.17-16.596-19.66-11.745
				C250.706,99.281,251.908,114.089,251.908,114.089z"/>
			<path style="fill:#94A5FF;" d="M182.175,79.03c8.02,0,16.04,0,24.06,0c3.671,0,7.342-0.015,11.012-0.021
				c3.154-0.005,6.352,0.353,9.501,0.091c1.856-0.155,1.392-0.874,0.872-2.446c-0.461-1.394-1.064-2.746-1.917-3.947
				c-1.312-1.846-3.27-3.318-5.509-3.654c-1.528-0.23-3.083,0.071-4.585,0.435c-1.924,0.467-3.822,1.039-5.682,1.715
				c-1.529,0.555-1.865,1.032-2.82-0.148c-1.17-1.446-2.016-3.118-3.271-4.528c-3.264-3.663-7.944-6.381-12.867-4.302
				C181.148,66.371,182.175,79.03,182.175,79.03z"/>
		</g>
	</g>
	<g>
		<path style="fill:#FFFFFF;" d="M162.71,215.024c0,0,4.055,1.496,5.731,7.362c1.676,5.866-3.079,11.386-3.079,11.386l-4.52-4.347
			l-1.619-6.245l1.619-7.331L162.71,215.024z"/>
		<g>
			
				<ellipse transform="matrix(0.9239 -0.3827 0.3827 0.9239 -113.9921 50.7879)" style="fill:#2E2E8E;" cx="70.668" cy="311.932" rx="21.735" ry="21.735"/>
			<circle style="fill:#FFFFFF;" cx="70.668" cy="311.932" r="13.984"/>
		</g>
		
			<ellipse transform="matrix(0.9872 -0.1592 0.1592 0.9872 -47.6794 31.1083)" style="fill:#2E2E8E;" cx="170.34" cy="313.171" rx="20.165" ry="20.165"/>
		
			<ellipse transform="matrix(0.9736 -0.2284 0.2284 0.9736 -66.8028 47.1544)" style="fill:#FFFFFF;" cx="170.34" cy="312.213" rx="13.984" ry="13.984"/>
		<path style="fill:#94A5FF;" d="M189.02,303.664l-38.684,10.418l-0.164,0.046c0,0,0-0.007-0.007-0.026
			c-0.02-0.072-0.079-0.302-0.151-0.676c-0.578-2.947-1.884-14.665,10.825-24.223c0.092,0,2.613,0.007,6.21,0.689
			c0.059,0.007,0.125,0.02,0.184,0.033l0.584,0.131c0,0,0,0,0.007,0l2.514,0.578C176.502,292.301,184.248,295.898,189.02,303.664z"
			/>
		<path style="fill:#94A5FF;" d="M165.362,233.772c-0.781,1.096-1.753,2.088-2.928,2.954c-0.722-3.276-1.681-6.899-4.549-8.639
			c-1.91-1.169-4.175-1.116-6.289-1.175c-0.611-3.381-0.256-6.899,0.604-10.195c0.381-1.405,2.265-6.597,4.812-5.468
			c0,0,2.902,1.273,5.698,3.775c-1.759,5.219-2.934,12.617,1.707,17.75C164.745,233.135,165.06,233.47,165.362,233.772z"/>
		<path style="fill:#94A5FF;" d="M160.254,289.651l7.597,0.402c0.576,0.074,1.573-2.446,2.489-5.195
			c1.009-3.022,1.913-6.322,2.037-6.786c2.446-9.356,2.805-20.47-0.464-30.012c-0.161-0.471-0.334-0.941-0.514-1.406
			c-1.505-3.87-3.635-7.455-6.508-10.489c-0.198-0.217-0.403-0.427-0.607-0.632c-0.111-0.124-0.229-0.241-0.334-0.359
			c-0.031-0.031-0.056-0.056-0.093-0.093c0,0-0.737,0.167-1.22,0.285c-0.043,0.012-0.08,0.019-0.118,0.031
			c-0.155,0.031-0.266,0.062-0.272,0.068c-0.025,0.025-0.043,0.056-0.062,0.118c-0.025,0.093-0.025,0.242-0.006,0.434
			c0.155,1.944,2.186,8.198,2.353,9.059c1.499,7.443,1.746,15.127,0.991,22.668c-0.384,3.796-1.022,7.554-1.895,11.257
			c-0.136,0.545-1.368,5.523-2.155,8.322c0,0.018-0.012,0.025-0.012,0.043C161.158,288.455,160.328,289.651,160.254,289.651z"/>
		<path style="fill:#94A5FF;" d="M162.52,235.397v0.025c0.025,0.378,0.285,0.687,0.52,0.978c2.31,2.836,3.666,6.427,6.334,8.922
			c0.582,0.545,1.529,1.387,2.025,1.331c-1.505-3.87-3.635-7.455-6.508-10.489c-0.198-0.217-0.403-0.427-0.607-0.632
			c-0.111-0.124-0.229-0.241-0.334-0.359c-0.031-0.031-0.056-0.056-0.093-0.093c0,0-0.737,0.167-1.22,0.285
			C162.594,235.378,162.557,235.385,162.52,235.397z"/>
		<path style="fill:#2E2E8E;" d="M65.89,263.556c0.1,2.65,0.931,6.711,0.931,6.711h27.397c0.927,0,1.843-0.194,2.681-0.59
			c2.098-0.989,5.719-3.213,5.157-6.596c-0.012-0.076-0.023-0.151-0.041-0.227c-0.106-0.544-0.259-1.108-0.483-1.686
			c-0.029-0.09-0.065-0.172-0.106-0.262c-0.248-0.606-0.572-1.225-0.978-1.851c-4.261-6.559-26.936-3.744-30.042-2.574
			c-1.397,0.523-2.476,1.473-3.218,2.602c-0.047,0.069-0.094,0.138-0.13,0.206c-0.324,0.509-0.572,1.046-0.755,1.597
			c-0.029,0.062-0.047,0.124-0.065,0.186C65.972,261.904,65.86,262.758,65.89,263.556z"/>
		<path style="fill:#94A5FF;" d="M151.596,226.908c0,0,4.994,2.041,6.551,14.219c1.558,12.178,1.558,26.056-0.85,34.978
			c-1.362,5.049-2.809,10.136-4.941,14.923c-1.78,3.996-4.229,7.36-8.466,8.917c-8.842,3.249-19.675,2.518-28.794,1.043
			c-4.079-0.66-8.71-1.552-11.61-4.774c-1.275-1.416-2.563-6.943-2.563-6.943s0.474,6.199-1.403,8.784
			c-0.941,1.296-5.102,6.899-5.102,6.899s15.723,1.314,33.707,1.172c17.984-0.142,25.543,1.192,29.313-8.355
			c3.77-9.547,8.143-19.471,8.78-33.349c0.593-12.906-0.388-22.166-4.248-30.588C158.11,225.413,157.506,227.275,151.596,226.908z"
			/>
		<path style="fill:#2E2E8E;" d="M150.172,304.958c0,0-14.965,0.887-27.002,0.601c-12.037-0.285-27.472-6.372-27.472-6.372
			l0.459,2.504l-5.84,0.241l2.086,9.292l57.275,0.708L150.172,304.958z"/>
		<path style="fill:#2E2E8E;" d="M151.264,231.817L151.264,231.817c0.683,0.394,1.564,0.158,1.959-0.525l3.442-5.962
			c0.394-0.683,0.158-1.564-0.525-1.959l0,0c-0.683-0.394-1.564-0.158-1.959,0.525l-3.442,5.962
			C150.345,230.541,150.581,231.422,151.264,231.817z"/>
		<g>
			<g>
				<g>
					<path style="fill:#94A5FF;" d="M30.263,234.572v32.43c0,1.489,1.198,2.695,2.687,2.695h44.044c1.481,0,2.687-1.206,2.687-2.695
						v-32.43c0-1.481-1.206-2.687-2.687-2.687H32.95C31.461,231.885,30.263,233.092,30.263,234.572z"/>
					<rect x="30.263" y="263.475" style="fill:#2E2E8E;" width="49.418" height="0.832"/>
					<path style="fill:#2E2E8E;" d="M30.263,236.952v6.68c0.033,0.008,0.067,0.008,0.1,0.008c0.607,0,1.098-0.491,1.098-1.098
						v-4.501c0-0.607-0.491-1.098-1.098-1.098C30.33,236.944,30.296,236.944,30.263,236.952z"/>
					<path style="fill:#2E2E8E;" d="M30.263,252.784v6.672c0.033,0.008,0.067,0.008,0.1,0.008c0.607,0,1.098-0.491,1.098-1.098
						v-4.501c0-0.599-0.491-1.09-1.098-1.09C30.33,252.776,30.296,252.776,30.263,252.784z"/>
				</g>
			</g>
		</g>
		<polygon style="fill:#94A5FF;" points="45.803,306.128 49.182,284.071 53.683,271.587 93.746,271.587 109.389,304.623 		"/>
		<rect x="47.599" y="301.159" style="fill:#94A5FF;" width="102.45" height="4.4"/>
		<polygon style="fill:#94A5FF;" points="96.538,304.593 96.538,308.004 145.539,308.004 145.539,304.27 		"/>
		<path style="fill:#FFFFFF;" d="M48.627,287.694h-2.312c-0.648,0-1.174,0.525-1.174,1.174v5.475c0,0.679,0.55,1.229,1.229,1.229
			h1.05L48.627,287.694z"/>
		<path style="fill:#2E2E8E;" d="M86.938,291.633H64.549c-0.395,0-0.718-0.323-0.718-0.718l0,0c0-0.395,0.323-0.718,0.718-0.718
			h22.389c0.395,0,0.718,0.323,0.718,0.718l0,0C87.656,291.31,87.333,291.633,86.938,291.633z"/>
		<path style="fill:#2E2E8E;" d="M86.938,294.623H64.549c-0.395,0-0.718-0.323-0.718-0.718l0,0c0-0.395,0.323-0.718,0.718-0.718
			h22.389c0.395,0,0.718,0.323,0.718,0.718l0,0C87.656,294.3,87.333,294.623,86.938,294.623z"/>
		<path style="fill:#2E2E8E;" d="M86.938,297.807H64.549c-0.395,0-0.718-0.323-0.718-0.718l0,0c0-0.395,0.323-0.718,0.718-0.718
			h22.389c0.395,0,0.718,0.323,0.718,0.718l0,0C87.656,297.484,87.333,297.807,86.938,297.807z"/>
		<rect x="100.227" y="295.444" style="fill:#94A5FF;" width="50.616" height="7.486"/>
		<path style="fill:#2E2E8E;" d="M87.991,310.21H43.779c-1.279,0-2.325-1.046-2.325-2.325l0,0c0-1.279,1.046-2.325,2.325-2.325
			h44.212c1.279,0,2.325,1.046,2.325,2.325l0,0C90.316,309.164,89.27,310.21,87.991,310.21z"/>
		<path style="fill:#2E2E8E;" d="M92.845,273.008H31.837c-0.866,0-1.574-0.708-1.574-1.574v-0.209c0-0.866,0.708-1.574,1.574-1.574
			h61.008c0.866,0,1.574,0.708,1.574,1.574v0.209C94.419,272.299,93.71,273.008,92.845,273.008z"/>
		<path style="fill:none;stroke:#2E2E8E;stroke-width:0.3282;stroke-miterlimit:10;" d="M155.714,226.975
			c0,0,5.856,5.74,6.805,16.665c0.949,10.925-0.168,33.272-3.297,40.2c-3.129,6.928-6.247,13.931-6.247,13.931
			s-3.8,8.523-3.301,12.439"/>
		<path style="fill:#2E2E8E;" d="M167.817,290.056c-1.799,0.368-4.93,1.254-8.022,3.341c-4.346,2.928-9.505,8.901-9.459,20.685
			v0.046h-0.328c0-0.236,0-0.473,0.007-0.702c0.138-11.501,5.271-17.389,9.61-20.304c2.757-1.864,5.553-2.783,7.424-3.23
			c0.059,0.007,0.125,0.02,0.184,0.033L167.817,290.056z"/>
		<polyline style="fill:none;stroke:#2E2E8E;stroke-width:0.3282;stroke-miterlimit:10;" points="92.845,273.008 104.081,297.807 
			152.976,297.807 		"/>
		<circle style="fill:#FFE9E1;" cx="54.972" cy="248.316" r="7.602"/>
	</g>
	<g>
		<g>
			<path style="fill:#F7907F;" d="M346.935,296.182l-0.116,9.54c0,0-26.605,2.515-28.612-1.816
				c-0.267-0.568-0.526-1.303-0.772-2.161l-0.002-0.011c-0.035-0.094-0.06-0.19-0.087-0.296c-0.387-1.379-0.736-3.006-1.011-4.644
				c-0.014-0.097-0.041-0.204-0.045-0.303c-0.301-1.811-0.492-3.605-0.525-5.058c-0.004-0.099-0.006-0.187-0.008-0.275
				c-0.012-1.821,0.235-3.05,0.872-2.957c1.953,0.274,17.817,3.676,17.817,3.676s-4.18-4.141-5.594-5.345
				c-1.403-1.206-0.409-2.756,1.362-3.781C331.986,281.726,346.935,296.182,346.935,296.182z"/>
		</g>
		<path style="fill:#160F56;" d="M352.85,292.257c-1.067,0.023-1.922,1.016-1.922,2.233v1.051h-4.59v10.712h4.59v0.724
			c0,1.186,0.81,2.165,1.848,2.23c10.987,0.68,67.515,3.917,75.96-0.91l4.898-17.764L352.85,292.257z"/>
	</g>
	<g>
		<g>
			<g>
				<rect x="252.566" y="240.045" style="fill:#EA6A61;" width="80.279" height="116.492"/>
				<rect x="285.122" y="247.87" style="fill:#FFB594;" width="17.032" height="43.086"/>
				<g>
					
						<rect x="313.181" y="332.263" style="fill:none;stroke:#160F56;stroke-width:0.4903;stroke-miterlimit:10;" width="15.824" height="17.651"/>
					
						<line style="fill:none;stroke:#160F56;stroke-width:0.4903;stroke-miterlimit:10;" x1="313.181" y1="350.175" x2="329.005" y2="332.524"/>
					
						<line style="fill:none;stroke:#160F56;stroke-width:0.4903;stroke-miterlimit:10;" x1="313.181" y1="332.524" x2="329.005" y2="350.175"/>
				</g>
				<rect x="252.566" y="240.045" style="fill:#DD4B4B;" width="80.279" height="7.824"/>
				<rect x="285.122" y="240.045" style="fill:#F9A78A;" width="17.032" height="7.824"/>
				<g>
					
						<rect x="294.152" y="332.263" style="fill:none;stroke:#160F56;stroke-width:0.4903;stroke-miterlimit:10;" width="15.824" height="17.651"/>
					
						<polygon style="fill:none;stroke:#160F56;stroke-width:0.4434;stroke-linecap:round;stroke-linejoin:round;stroke-miterlimit:10;" points="
						297.235,346.213 301.86,335.965 306.893,346.213 					"/>
				</g>
			</g>
			<g>
				<g>
					<g>
						<path style="fill:#ED823A;" d="M243.242,131.228c-2.961,1.532-6.12,3.159-9.383,4.833
							c-7.311,3.774-15.143,7.813-22.408,11.559c-2.573,1.324-5.07,2.611-7.444,3.84l-2.223,1.145
							c-1.485,0.766-2.913,1.504-4.275,2.204l-1.958,1.012c-2.838,1.457-5.325,2.743-7.34,3.784c-3.065,1.58-5.032,2.592-5.429,2.8
							l-0.01,0.009c-0.047,0.019-0.066,0.028-0.066,0.028s-0.52-0.766-1.211-2.128c-0.927-1.816-2.175-4.682-2.932-8.172
							l-0.104-0.511c-1.627-8.097-0.511-19.352,12.864-28.735c0.009-0.009,0.019-0.019,0.019-0.019
							c1.04-0.738,2.157-1.457,3.348-2.157c1.135-0.672,2.346-1.334,3.632-1.977c0.019-0.009,0.038-0.009,0.076-0.028
							c0.407-0.218,0.832-0.416,1.258-0.624C230.946,103.192,243.242,131.228,243.242,131.228z"/>
						<path style="fill:#2E2E8E;" d="M182.706,162.442c7.02-2.979,14.037-5.966,21.052-8.956
							c13.226-5.638,26.447-11.286,39.646-16.987c4.205-1.816,8.51-3.642,12.668-5.648c1.244-0.6,11.017-5.338,10.333-6.334
							c-0.692-1.008-4.342-0.064-5.445,0.241c-2.758,0.762-5.473,1.61-8.16,2.596c-3.19,1.171-6.531,2.313-9.559,3.875
							C219.318,143.564,182.706,162.442,182.706,162.442z"/>
					</g>
					
						<path style="fill:none;stroke:#160F56;stroke-width:0.4729;stroke-linecap:round;stroke-linejoin:round;stroke-miterlimit:10;" d="
						M191.345,122.872c0,0-10.109,13.609-3.135,36.732"/>
					
						<line style="fill:none;stroke:#160F56;stroke-width:0.4729;stroke-linecap:round;stroke-linejoin:round;stroke-miterlimit:10;" x1="194.688" y1="120.72" x2="212.729" y2="149.659"/>
					
						<path style="fill:none;stroke:#160F56;stroke-width:0.4729;stroke-linecap:round;stroke-linejoin:round;stroke-miterlimit:10;" d="
						M198.295,118.753c0,0,20.116-7.03,37.965,20.825"/>
				</g>
				<g>
					<path style="fill:#160F56;" d="M194.186,194.452c0,0-2.641,16.234,8.074,13.867l3.148-10.88l-0.946-4.729h-0.946
						L194.186,194.452L194.186,194.452z"/>
					<path style="fill:#FFB594;" d="M247.025,212.573c-4.729,3.783-20.809,0-20.809,0s-1.532,3.065-1.211,8.456
						c0.104,1.939,0.464,4.181,1.211,6.678l1.892,5.675c0,0-21.755-2.838-24.593-14.188c-2.838-11.35,0-25.538,0-25.538
						s-22.701,5.675-22.701-12.296s17.972-11.35,18.917-7.567c0.946,3.783,18.917-28.376,18.917-28.376h28.376
						C247.025,145.416,251.755,208.789,247.025,212.573z"/>
					<linearGradient id="SVGID_1_" gradientUnits="userSpaceOnUse" x1="256.9541" y1="127.7164" x2="192.9572" y2="226.9719">
						<stop  offset="0.0037" style="stop-color:#EA6A61;stop-opacity:0.1"/>
						<stop  offset="1" style="stop-color:#EA6A61;stop-opacity:0.5"/>
					</linearGradient>
					<path style="fill:url(#SVGID_1_);" d="M247.025,212.573c-4.729,3.783-20.809,0-20.809,0s-1.532,3.065-1.211,8.456
						c0.104,1.939,0.464,4.181,1.211,6.678l1.892,5.675c0,0-21.755-2.838-24.593-14.188c-2.838-11.35,0-25.538,0-25.538
						s-22.701,5.675-22.701-12.296s17.972-11.35,18.917-7.567c0.946,3.783,18.917-28.376,18.917-28.376h28.376
						C247.025,145.416,251.755,208.789,247.025,212.573z"/>
					<path style="fill:#160F56;" d="M182.706,162.442l3.043,7.997c0,0,7.609-2.833,12.688,1.679
						c5.079,4.512,1.295,15.862,6.025,15.862c4.729,0,5.675-6.621,4.729-9.459c-0.946-2.838-1.892-5.675-1.892-5.675
						s8.513-5.675,10.405-15.134c1.892-9.459,0.946-12.296,0.946-12.296s17.026,8.513,28.376,0c0,0,2.838-2.838,1.892-5.675
						c-0.946-2.838-5.675-8.513-5.675-8.513L182.706,162.442z"/>
					<g>
						<g>
							<path style="fill:#160F56;" d="M225.006,221.029c-7.255-3.585-11.464-13.911-11.464-13.911l12.675,5.455
								C226.216,212.573,224.684,215.637,225.006,221.029z"/>
							
								<path style="fill:none;stroke:#160F56;stroke-width:0.4729;stroke-linecap:round;stroke-linejoin:round;stroke-miterlimit:10;" d="
								M208.386,204.382c0,0,5.031,3.105,12.83,6.349"/>
						</g>
						<g>
							<g>
								
									<path style="fill:none;stroke:#160F56;stroke-width:0.9459;stroke-linecap:round;stroke-linejoin:round;stroke-miterlimit:10;" d="
									M197.606,177.419c-1.472-1.226-3.121-2.329-4.997-2.719c-3.268-0.679-6.42,1.493-7.289,4.663
									c-0.875,3.192,0.504,6.79,3.12,8.746c2.54,1.899,6.245,2.521,9.193,1.288"/>
								
									<path style="fill:none;stroke:#160F56;stroke-width:0.9459;stroke-linecap:round;stroke-linejoin:round;stroke-miterlimit:10;" d="
									M186.976,176.493c0,0,9.697,1.626,9.818,12.906"/>
							</g>
							<g>
								<path style="fill:#160F56;" d="M234.533,154.704c1.031-0.334,2.088-0.586,3.155-0.77c1.285-0.222,2.673-0.329,3.834,0.266
									c1.16,0.595,1.919,2.133,1.259,3.258c-0.519,0.885-1.636,1.174-2.631,1.424c-4.081,1.023-7.997,2.7-11.553,4.949
									c-0.921,0.583-1.886,1.226-2.977,1.246c-4.516,0.085,0.056-4.771,1.178-5.814
									C229.009,157.211,231.662,155.633,234.533,154.704z"/>
								<path style="fill:#160F56;" d="M241.482,166.823c0,1.709-1.385,3.094-3.094,3.094c-1.709,0-3.094-1.385-3.094-3.094
									c0-1.709,1.385-3.094,3.094-3.094C240.097,163.73,241.482,165.115,241.482,166.823z"/>
							</g>
						</g>
						<g>
							<path style="fill:#FFFFFF;" d="M214.801,176.493l36.411-4.875c0,0,2.576,38.863-1.449,42.454
								c-4.025,3.591-23.546-1.5-23.546-1.5S210.941,201.284,214.801,176.493z"/>
							<path style="fill:#FFFFFF;" d="M215.698,177.244c-0.095,0.114-0.227,0.18-0.369,0.18c-0.104,0-0.208-0.028-0.293-0.104
								c-8.068-6.318-15.38-7.113-19.324-6.952c-0.719-0.378-1.665-0.586-2.563-0.69c2.667-0.511,11.852-1.428,22.474,6.905
								C215.831,176.743,215.859,177.036,215.698,177.244z"/>
							<path style="fill:#FFFFFF;" d="M217.202,198.848c0,0.255-0.218,0.463-0.473,0.463h-0.01
								c-7.302-0.132-18.898-3.774-22.133-4.833c0.435,0.038,0.842,0.066,1.182,0.076c0.596,0.009,1.305-0.019,1.949-0.076h0.01
								c4.833,1.457,13.356,3.783,19.012,3.888C217.004,198.366,217.212,198.583,217.202,198.848z"/>
						</g>
					</g>
				</g>
				<path style="fill:#160F56;" d="M183.756,159.415l-2.261,0.899c-0.927-1.816-2.175-4.682-2.932-8.172l-0.104-0.511
					c0,0,1.911-1.324,3.358,2.128C183.274,157.211,183.756,159.415,183.756,159.415z"/>
				<g>
					<g>
						<path style="fill:#2E2E8E;" d="M296.885,305.78c-0.039,0.255-0.079,0.51-0.118,0.775c-0.255,1.628-0.618,3.393-1.069,5.109
							c-0.059,0.265-0.128,0.52-0.206,0.785c-0.461,1.706-1,3.353-1.589,4.746c-0.108,0.284-0.235,0.559-0.353,0.814
							c-0.696,1.51-1.441,2.638-2.187,3.118c-3.677,2.334-31.378,6.178-31.378,6.178l-6.923-16.64c0,0,2.922-4.893,6.089-7.57
							c3.167-2.667,15.189-11.512,17.69-11.012c2.5,0.5,3.844,3.844,3,4.677c-0.833,0.833-8.011,7.344-8.011,7.344
							s22.534-5.844,24.71-4.677C297.326,299.848,297.345,302.475,296.885,305.78z"/>
						<path style="fill:#160F56;" d="M296.885,305.78c-0.039,0.255-0.079,0.51-0.118,0.775l-19.984,3.491h-0.069
							c-0.177,0-0.333-0.128-0.363-0.304c-0.029-0.196,0.098-0.392,0.304-0.422L296.885,305.78z"/>
						<path style="fill:#160F56;" d="M295.698,311.663c-0.059,0.265-0.128,0.52-0.206,0.785l-18.709,3.275
							c-0.02,0-0.049,0.01-0.069,0.01c-0.177,0-0.333-0.128-0.363-0.314c-0.029-0.196,0.098-0.382,0.304-0.422L295.698,311.663z"/>
						<path style="fill:#160F56;" d="M293.904,317.194c-0.108,0.284-0.235,0.559-0.353,0.814l-16.768,2.922
							c-0.02,0.01-0.049,0.01-0.069,0.01c-0.177,0-0.333-0.127-0.363-0.304c-0.029-0.196,0.098-0.392,0.304-0.422L293.904,317.194z"
							/>
					</g>
					<g>
						<path style="fill:#FF9750;" d="M199.454,219.955c-2.452-1.138-17.158,28.329-18.238,31.425
							c-4.002,11.466-7.406,23.312-9.596,35.299c-4.546,24.879-4.338,50.634,0.732,75.417c1.479,7.228,3.112,14.467,4.935,21.617
							h59.585c0,0,4.256-21.781,4.006-34.049c-0.25-12.267-7.418-104.357-11.595-115.302
							C229.284,234.362,199.455,219.955,199.454,219.955z"/>
						
							<linearGradient id="SVGID_00000176748457347444605800000003914279047385329087_" gradientUnits="userSpaceOnUse" x1="201.5606" y1="392.7942" x2="210.5735" y2="222.8832">
							<stop  offset="0" style="stop-color:#FF9750"/>
							<stop  offset="1" style="stop-color:#FF7C3B"/>
						</linearGradient>
						<path style="fill:url(#SVGID_00000176748457347444605800000003914279047385329087_);" d="M199.454,219.955
							c-2.452-1.138-17.158,28.329-18.238,31.425c-4.002,11.466-7.406,23.312-9.596,35.299c-4.546,24.879-4.338,50.634,0.732,75.417
							c1.479,7.228,3.112,14.467,4.935,21.617h59.585c0,0,4.256-21.781,4.006-34.049c-0.25-12.267-7.418-104.357-11.595-115.302
							C229.284,234.362,199.455,219.955,199.454,219.955z"/>
						<g>
							<g>
								
									<path style="fill:none;stroke:#160F56;stroke-width:0.4903;stroke-linecap:round;stroke-linejoin:round;stroke-miterlimit:10;" d="
									M176.153,378.652c0,0,47.646,0.59,61.569,0"/>
								
									<line style="fill:none;stroke:#160F56;stroke-width:0.4903;stroke-linecap:round;stroke-linejoin:round;stroke-miterlimit:10;" x1="178.748" y1="379.046" x2="179.291" y2="383.713"/>
								
									<line style="fill:none;stroke:#160F56;stroke-width:0.4903;stroke-linecap:round;stroke-linejoin:round;stroke-miterlimit:10;" x1="181.858" y1="379.046" x2="182.4" y2="383.713"/>
								
									<line style="fill:none;stroke:#160F56;stroke-width:0.4903;stroke-linecap:round;stroke-linejoin:round;stroke-miterlimit:10;" x1="184.967" y1="379.046" x2="185.51" y2="383.713"/>
								
									<line style="fill:none;stroke:#160F56;stroke-width:0.4903;stroke-linecap:round;stroke-linejoin:round;stroke-miterlimit:10;" x1="188.077" y1="379.046" x2="188.619" y2="383.713"/>
								
									<line style="fill:none;stroke:#160F56;stroke-width:0.4903;stroke-linecap:round;stroke-linejoin:round;stroke-miterlimit:10;" x1="191.187" y1="379.046" x2="191.729" y2="383.713"/>
								
									<line style="fill:none;stroke:#160F56;stroke-width:0.4903;stroke-linecap:round;stroke-linejoin:round;stroke-miterlimit:10;" x1="194.296" y1="379.046" x2="194.839" y2="383.713"/>
								
									<line style="fill:none;stroke:#160F56;stroke-width:0.4903;stroke-linecap:round;stroke-linejoin:round;stroke-miterlimit:10;" x1="197.406" y1="379.046" x2="197.948" y2="383.713"/>
								
									<line style="fill:none;stroke:#160F56;stroke-width:0.4903;stroke-linecap:round;stroke-linejoin:round;stroke-miterlimit:10;" x1="200.515" y1="379.046" x2="201.058" y2="383.713"/>
								
									<line style="fill:none;stroke:#160F56;stroke-width:0.4903;stroke-linecap:round;stroke-linejoin:round;stroke-miterlimit:10;" x1="203.625" y1="379.046" x2="204.167" y2="383.713"/>
								
									<line style="fill:none;stroke:#160F56;stroke-width:0.4903;stroke-linecap:round;stroke-linejoin:round;stroke-miterlimit:10;" x1="206.734" y1="379.046" x2="207.277" y2="383.713"/>
								
									<line style="fill:none;stroke:#160F56;stroke-width:0.4903;stroke-linecap:round;stroke-linejoin:round;stroke-miterlimit:10;" x1="209.844" y1="379.046" x2="210.386" y2="383.713"/>
								
									<line style="fill:none;stroke:#160F56;stroke-width:0.4903;stroke-linecap:round;stroke-linejoin:round;stroke-miterlimit:10;" x1="212.954" y1="379.046" x2="213.496" y2="383.713"/>
								
									<line style="fill:none;stroke:#160F56;stroke-width:0.4903;stroke-linecap:round;stroke-linejoin:round;stroke-miterlimit:10;" x1="216.063" y1="379.046" x2="216.606" y2="383.713"/>
								
									<line style="fill:none;stroke:#160F56;stroke-width:0.4903;stroke-linecap:round;stroke-linejoin:round;stroke-miterlimit:10;" x1="219.173" y1="379.046" x2="219.715" y2="383.713"/>
								
									<line style="fill:none;stroke:#160F56;stroke-width:0.4903;stroke-linecap:round;stroke-linejoin:round;stroke-miterlimit:10;" x1="222.282" y1="379.046" x2="222.825" y2="383.713"/>
								
									<line style="fill:none;stroke:#160F56;stroke-width:0.4903;stroke-linecap:round;stroke-linejoin:round;stroke-miterlimit:10;" x1="225.392" y1="379.046" x2="225.934" y2="383.713"/>
								
									<line style="fill:none;stroke:#160F56;stroke-width:0.4903;stroke-linecap:round;stroke-linejoin:round;stroke-miterlimit:10;" x1="228.501" y1="379.046" x2="229.044" y2="383.713"/>
								
									<line style="fill:none;stroke:#160F56;stroke-width:0.4903;stroke-linecap:round;stroke-linejoin:round;stroke-miterlimit:10;" x1="231.611" y1="379.046" x2="232.153" y2="383.713"/>
								
									<line style="fill:none;stroke:#160F56;stroke-width:0.4903;stroke-linecap:round;stroke-linejoin:round;stroke-miterlimit:10;" x1="234.721" y1="379.046" x2="235.263" y2="383.713"/>
							</g>
							
								<line style="fill:none;stroke:#160F56;stroke-width:0.9806;stroke-linecap:round;stroke-linejoin:round;stroke-miterlimit:10;" x1="204.631" y1="367.441" x2="204.631" y2="378.205"/>
						</g>
						<g>
							<g>
								<path style="fill:#160F56;" d="M201.515,213.412c0.001,0.001,27.681,18.688,27.681,18.688s0.668,2.566-1.669,2.232
									c-9.852-1.408-19.564-5.508-26.708-12.558c-0.544-0.536-1.085-1.108-1.364-1.819
									C199.088,219.022,201.035,213.088,201.515,213.412z"/>
								<path style="fill:#160F56;" d="M228.798,233.382c0,0,4.955,10.212,3.668,11.153c-1.288,0.941-1.962,0.751-2.963-4.006
									C228.502,235.772,228.798,233.382,228.798,233.382z"/>
							</g>
							<g>
								<g>
									
										<path style="fill:none;stroke:#160F56;stroke-width:0.9806;stroke-linecap:round;stroke-linejoin:round;stroke-miterlimit:10;" d="
										M188.619,245.181c0,0,14.266-5.007,21.496,7.678c7.23,12.685-6.219,72.986-6.219,72.986"/>
									
										<path style="fill:none;stroke:#160F56;stroke-width:0.9806;stroke-linecap:round;stroke-linejoin:round;stroke-miterlimit:10;" d="
										M207.277,224.467c0,0-6.11,5.002-9.871,19.868"/>
									
										<linearGradient id="SVGID_00000022534774501830776140000017639939994257205904_" gradientUnits="userSpaceOnUse" x1="180.3142" y1="310.678" x2="253.4188" y2="362.4187">
										<stop  offset="0" style="stop-color:#FF9750"/>
										<stop  offset="1" style="stop-color:#FF7C3B"/>
									</linearGradient>
									
										<path style="fill:url(#SVGID_00000022534774501830776140000017639939994257205904_);stroke:#160F56;stroke-width:0.9806;stroke-linecap:round;stroke-linejoin:round;stroke-miterlimit:10;" d="
										M192.482,326.302c0,0,29.664-10.014,53.448-14.521c0,0,1.753-3.505,6.259-3.755c4.506-0.25,11.016,18.526,9.263,20.78
										s-5.508,2.003-5.508,2.003s-49.21,44.892-66.572,39.139c-19.221-6.369-18.991-34.137-18.991-34.137"/>
									<path style="fill:#160F56;" d="M176.153,358.69c0,0,18.914-5.867,29.135,8.409c0,0-7.944,4.429-14.568,3.358
										C181.858,369.025,176.153,358.69,176.153,358.69z"/>
									
										<path style="fill:#FF9750;stroke:#160F56;stroke-width:0.9806;stroke-linecap:round;stroke-linejoin:round;stroke-miterlimit:10;" d="
										M245.93,311.781c0,0,1.625,5.837,7.133,16.352"/>
									
										<path style="fill:none;stroke:#160F56;stroke-width:0.4903;stroke-linecap:round;stroke-linejoin:round;stroke-miterlimit:10;" d="
										M196.065,246.266c0,0-17.565,81.617-13.665,94.886c3.9,13.269,22.137,15.522,67.096-16.524"/>
									
										<ellipse transform="matrix(0.7071 -0.7071 0.7071 0.7071 -138.1862 214.8257)" style="fill:#FFE9E1;" cx="190.225" cy="274.218" rx="10.807" ry="10.807"/>
								</g>
								<rect x="217.846" y="263.411" style="fill:#160F56;" width="12.873" height="1.882"/>
							</g>
						</g>
					</g>
					<g>
						<path style="fill:#160F56;" d="M235.371,383.714l-5.79,70.09c-8.1-0.61-16.19-1.46-24.25-2.55
							c-6.33-0.86-12.318-2.508-18.608-3.658l-7.972-63.882H235.371z"/>
						
							<line style="fill:none;stroke:#FF9750;stroke-width:0.4903;stroke-linecap:round;stroke-linejoin:round;stroke-miterlimit:10;" x1="206.011" y1="383.714" x2="205.331" y2="451.254"/>
					</g>
				</g>
				<path style="fill:#ED823A;" d="M182.706,162.442c0,0,71.942-33.446,78.024-36.024c4.659-1.974,5.675-1.902,5.675-1.902
					s-1.992-2.848-12.739,1.962c-10.08,4.511-10.425,4.749-10.425,4.749l-16.865,7.627L182.706,162.442z"/>
			</g>
		</g>
		<g>
			<defs>
				<path id="SVGID_00000172428997403370449280000014495774437798736565_" d="M364.04,438.383c0,0,55.633-18.573,76.667-65.117
					c21.034-46.545,21.224-99.501,21.224-99.501l5.492-67.65l-20.557-79.825l-28.1-17.501l-54.726,4.235l-17.448,77.673
					l9.417,74.622l-34.554,40.063v34.844L364.04,438.383z"/>
			</defs>
			<clipPath id="SVGID_00000027583810239983104400000016539456469456171661_">
				<use xlink:href="#SVGID_00000172428997403370449280000014495774437798736565_"  style="overflow:visible;"/>
			</clipPath>
			<g style="clip-path:url(#SVGID_00000027583810239983104400000016539456469456171661_);">
				<g>
					<path style="fill:#EA6A61;" d="M375.417,159.127c0.549,7.009,2.858,14.266,0.465,20.876
						c-2.405,6.643-9.006,10.913-12.152,17.239c-0.551,1.107-0.998,2.318-0.899,3.551c0.176,2.185,2.008,3.945,2.29,6.119
						c0.538,4.148-4.626,7.389-4.177,11.548c0.21,1.944,1.687,3.58,3.442,4.443c1.755,0.863,3.757,1.066,5.711,1.11
						c9.637,0.217,19.312-3.243,26.625-9.523c1.614-1.386,3.14-2.935,4.106-4.83c0.882-1.73,1.258-3.665,1.623-5.572
						c0.526-2.74,1.051-5.479,1.577-8.219c1.653-8.615,3.164-18.129-1.316-25.671c-3.514-5.916-10.006-9.319-14.806-14.249
						c-2.373-2.437-6.04-8.842-9.599-9.542C374.41,145.64,375.214,156.543,375.417,159.127z"/>
					<path style="fill:#E55955;" d="M366.679,144.126c1.177,4.245,5.074,7.081,8.775,9.47c0.163,0.106,0.341,0.215,0.536,0.208
						c0.397-0.015,0.601-0.47,0.715-0.85c0.831-2.781,1.663-5.561,2.494-8.342c0.214-0.715,0.43-1.451,0.36-2.194
						c-0.066-0.709-0.387-1.365-0.703-2.004c-1.049-2.119-2.258-4.397-4.421-5.351C368.388,132.398,365.227,138.89,366.679,144.126z
						"/>
				</g>
				<g>
					<path style="fill:#FFA88D;" d="M437.588,178.031c-2.146,9.792-17.799,6.898-17.799,6.898l-2.245,25.355l-25.075,18.863
						c5.058-4.797,6.339-15.473,6.573-23.074c0.153-4.842-0.126-8.422-0.126-8.422l-0.009,0.009
						c-0.442,0.253-16.645,9.828-22.704,6.808c-6.14-3.075,0-59.203,0-59.203l21.18-11.514c0,0,21.487,33.569,27.627,30.657
						C431.15,161.485,439.743,168.248,437.588,178.031z"/>
					<path style="fill:#160F56;" d="M406.546,192.026c0,0-4.328,11.285-7.573,13.253c0.159-5.008-0.13-8.711-0.13-8.711
						L406.546,192.026z"/>
					<g>
						<path style="fill:#2E2E8E;" d="M398.141,210.176c0,0,11.701,1.454,20.664-4.718c0,0-0.05,7.597,3.455,12.605
							s12.324,36.095,12.043,62.59l-7.215,61.451h-43.625c0,0-2.858-30.693-7.313-58.246c-1.663-10.286,20.351-60.028,22.021-73.306
							L398.141,210.176z"/>
						<polygon style="fill:#252584;" points="382.433,330.749 428.45,330.749 427.089,342.103 383.464,342.103 						"/>
						<g>
							<path style="fill:#94A5FF;" d="M432.384,354.24c-0.118-0.333-0.235-0.667-0.333-1c-2.285-6.609-4.648-11.796-4.648-11.796
								l0.029-0.245l0.088-0.735l0.559-4.736h-45.322l0.373,4.138l0.069,0.735l0.078,0.843l-3.305,96.939h34.81
								c0,0,12.708-23.23,18.797-49.529c0.078-0.333,0.157-0.667,0.225-1.01c0.99-4.364,1.775-8.805,2.295-13.228
								C436.737,369.125,434.659,361.045,432.384,354.24z"/>
							<g>
								<polygon style="fill:#160F56;" points="427.52,340.463 427.432,341.198 383.198,340.6 383.13,339.865 								"/>
								<g>
									
										<line style="fill:none;stroke:#160F56;stroke-width:0.7354;stroke-miterlimit:10;" x1="394.368" y1="335.731" x2="394.368" y2="340.225"/>
									
										<line style="fill:none;stroke:#160F56;stroke-width:0.7354;stroke-miterlimit:10;" x1="395.87" y1="335.731" x2="395.87" y2="340.225"/>
									
										<line style="fill:none;stroke:#160F56;stroke-width:0.7354;stroke-miterlimit:10;" x1="410.036" y1="335.731" x2="410.036" y2="340.225"/>
									
										<line style="fill:none;stroke:#160F56;stroke-width:0.7354;stroke-miterlimit:10;" x1="411.538" y1="335.731" x2="411.538" y2="340.225"/>
									
										<line style="fill:none;stroke:#160F56;stroke-width:0.7843;stroke-miterlimit:10;" x1="422.804" y1="335.731" x2="422.804" y2="340.842"/>
									
										<line style="fill:none;stroke:#160F56;stroke-width:0.7843;stroke-miterlimit:10;" x1="424.306" y1="335.731" x2="424.306" y2="340.842"/>
								</g>
								<path style="fill:none;stroke:#160F56;stroke-width:0.9806;stroke-miterlimit:10;" d="M408.436,340.577
									c1.488,32.895-5.346,65.518-8.794,98.266"/>
								<path style="fill:#160F56;" d="M427.255,379.293c-0.686-2.206-0.902-4.579-1.02-6.815
									c-0.324-6.07-0.088-12.208,0.696-18.239c0.686-0.049,2.51-0.049,5.452,0c-0.118-0.333-0.235-0.667-0.333-1
									c-5.952-0.098-5.972,0.02-6.05,0.52h0.01c-0.843,6.207-1.089,12.522-0.755,18.768c0.127,2.304,0.343,4.746,1.069,7.06
									c1.206,3.844,3.824,7.178,7.256,9.266c0.078-0.333,0.157-0.667,0.225-1.01C430.717,385.863,428.363,382.804,427.255,379.293
									z"/>
								<path style="fill:none;stroke:#160F56;stroke-width:0.9806;stroke-miterlimit:10;" d="M399.808,340.605
									c-4.434,7.725,1.492,20.806,8.469,25.206"/>
							</g>
						</g>
						<g>
							<g>
								<path style="fill:#2E2E8E;" d="M419,231.832c0,0-16.937,2.942-15.969,24.431c0.968,21.489,27.277,72.379,27.277,72.379
									s14.475,5.441,16.307-5.67C448.447,311.86,440.342,233.972,419,231.832z"/>
								<path style="fill:#2E2E8E;" d="M446.746,311.196l-80.784,1.723c-1.067,0.023-1.922,1.016-1.922,2.233v12.488
									c0,1.186,0.81,2.165,1.848,2.229c10.987,0.68,67.515,3.917,75.96-0.91L446.746,311.196z"/>
								<polygon style="fill:#2E2E8E;" points="364.04,316.203 359.45,316.203 359.45,326.915 366.085,326.915 366.085,316.203 
																	"/>
							</g>
							<g>
								
									<path style="fill:none;stroke:#94A5FF;stroke-width:0.7354;stroke-linecap:round;stroke-linejoin:round;stroke-miterlimit:10;" d="
									M419,231.832c0,0-14.817,2.029-15.528,17.037c-0.71,15.009,22.295,62.327,22.295,62.327"/>
								
									<path style="fill:none;stroke:#94A5FF;stroke-width:0.7354;stroke-linecap:round;stroke-linejoin:round;stroke-miterlimit:10;" d="
									M401.51,259.121c0,0,3.208,5.758,7.362,12.393"/>
								
									<line style="fill:none;stroke:#94A5FF;stroke-width:0.7354;stroke-linecap:round;stroke-linejoin:round;stroke-miterlimit:10;" x1="380.203" y1="312.615" x2="436.096" y2="311.423"/>
							</g>
							<g>
								<path style="fill:#FFA88D;" d="M359.45,316.203l-0.174,10.737c0,0-26.596,1.207-28.585-3.132
									c-0.264-0.569-0.521-1.305-0.763-2.164l-0.002-0.011c-0.035-0.094-0.06-0.19-0.086-0.297
									c-0.381-1.38-0.723-3.009-0.992-4.648c-0.014-0.097-0.04-0.204-0.044-0.303c-0.294-1.812-0.477-3.607-0.504-5.06
									c-0.004-0.099-0.005-0.187-0.007-0.275c-0.005-1.821,0.247-3.049,0.884-2.953c1.951,0.282,17.802,3.749,17.802,3.749
									s-4.163-4.158-5.572-5.368c-1.398-1.211-0.397-2.758,1.377-3.775C344.56,301.685,359.45,316.203,359.45,316.203z"/>
								<g>
									<path style="fill:#160F56;" d="M345.533,315.51c-0.003,0.056-0.049,0.106-0.102,0.114
										c-0.021,0.003-0.031,0.005-0.044-0.005l-3.087-0.493l-13.998-3.8c-0.004-0.099-0.005-0.187-0.007-0.275l14.064,3.813
										l3.065,0.486C345.5,315.36,345.543,315.431,345.533,315.51z"/>
									<path style="fill:#160F56;" d="M345.228,320.62c-0.012,0.068-0.049,0.107-0.112,0.116l-0.032,0.005l-3.087-0.493
										l-13.147-3.559c-0.014-0.097-0.04-0.204-0.044-0.303l13.238,3.59l3.077,0.495
										C345.187,320.483,345.24,320.552,345.228,320.62z"/>
									<path style="fill:#160F56;" d="M329.927,321.633l0.002,0.011l10.546,2.863l3.088,0.493c0.01-0.002,0.021-0.003,0.042-0.006
										c0.053-0.008,0.1-0.048,0.112-0.116c0.001-0.066-0.041-0.138-0.118-0.149l-3.066-0.496l-10.691-2.897L329.927,321.633z"/>
								</g>
							</g>
						</g>
					</g>
					<g>
						<path style="fill:#EA6A61;" d="M425.007,164.403c-4.903,1.762-7.336,7.88-9.208,12.742c-1.862-0.394-5.489-3.421-5.593-5.322
							c-0.103-1.901,0.513-3.757,0.813-5.637c0.299-1.88,0.212-3.997-1.052-5.421c-1.604-1.807-4.419-1.793-6.787-1.309
							c-2.368,0.483-4.828,1.291-7.139,0.587c-4.688-1.428-5.68-7.81-9.56-10.803c-2.639-2.035-6.228-2.217-9.31-3.482
							c-5.671-2.328-9.331-8.779-8.419-14.84c0.911-6.062,6.306-11.152,12.41-11.709c2.832-0.259,4.93-1.966,7.767-2.171
							c10.854-0.783,22.03,0.223,32,4.584c9.97,4.362,18.635,12.362,22.271,22.619c2.066,5.828,2.463,12.111,2.445,18.294
							c-0.01,3.385-0.152,6.846-1.375,10.002c-1.223,3.157-3.826,5.688-7.114,6.494c1.649-4.605,0.569-8.997-2.601-12.198
							C431.386,163.633,428.059,163.306,425.007,164.403z"/>
						<g>
							<path style="fill:#FFFFFF;" d="M373.473,171.313c0,0,20.004,8.238,37.96,3.369c-0.355,0.096-1.574,3.097-1.697,3.46
								c-1.007,2.97-2.626,5.939-3.882,8.812c-3.061,7-5.585,12.464-12.617,16.089c-6.29,3.243-14.556,4.719-19.765,0.345
								C366.607,197.623,373.473,171.313,373.473,171.313z"/>
							<path style="fill:#FFFFFF;" d="M425.534,164.229c-0.262,0.072-0.588,0.193-0.859,0.302c-0.956,0.379-1.456,0.767-1.902,1.057
								c-7.096,2.443-13.796,13.065-13.877,13.2c-0.081,0.135-0.235,0.207-0.379,0.207c-0.081,0-0.171-0.018-0.243-0.063
								c-0.207-0.135-0.27-0.415-0.144-0.622C408.518,177.679,417.058,164.265,425.534,164.229z"/>
							<path style="fill:#FFFFFF;" d="M432.638,183.865c-3.3,2.849-11.992,3.462-18.782,3.462c-4.752,0-8.575-0.298-8.963-0.334
								l0.072-0.893c0.189,0.018,14.192,1.091,22.388-0.857C428.995,185.154,431.051,184.82,432.638,183.865z"/>
						</g>
						<g>
							<g>
								
									<path style="fill:none;stroke:#160F56;stroke-width:0.8698;stroke-linecap:round;stroke-linejoin:round;stroke-miterlimit:10;" d="
									M422.394,169.846c1.354-1.127,2.87-2.142,4.595-2.5c3.005-0.624,5.903,1.373,6.702,4.288
									c0.804,2.935-0.464,6.244-2.869,8.042c-2.336,1.746-5.743,2.318-8.453,1.185"/>
								
									<path style="fill:none;stroke:#160F56;stroke-width:0.8698;stroke-linecap:round;stroke-linejoin:round;stroke-miterlimit:10;" d="
									M432.168,168.995c0,0-8.917,1.495-9.028,11.867"/>
							</g>
							<g>
								<path style="fill:#E24F4B;" d="M377.29,160.234c1.406-1.018,3.033-1.475,4.705-1.622c1.673-0.163,3.368,0.085,4.958,0.577
									c1.567,0.533,2.992,1.181,4.371,2.055c1.354,0.888,2.657,1.887,3.537,3.408c0.109,0.188,0.045,0.43-0.144,0.539
									c-0.129,0.075-0.284,0.068-0.403-0.005l-0.073-0.045c-1.216-0.745-2.611-1.341-3.955-1.896
									c-0.693-0.253-1.364-0.548-2.07-0.775c-0.683-0.252-1.408-0.518-2.071-0.7c-1.34-0.431-2.719-0.69-4.122-0.801
									c-1.394-0.111-2.868-0.055-4.281,0.165l-0.077,0.012c-0.277,0.043-0.536-0.146-0.579-0.423
									C377.056,160.529,377.141,160.342,377.29,160.234z"/>
							</g>
							<path style="fill:#160F56;" d="M386.869,166.857c0,1.452-1.177,2.628-2.628,2.628c-1.452,0-2.628-1.177-2.628-2.628
								c0-1.451,1.177-2.628,2.628-2.628C385.692,164.229,386.869,165.406,386.869,166.857z"/>
						</g>
						<path style="fill:#EA6A61;" d="M448.572,173.646c1.877,4.051,4.577,8.334,3.372,12.633c-1.309,4.668-6.87,7.484-7.384,12.304
							c-0.412,3.866,2.616,7.169,3.806,10.87c1.164,3.622,0.444,7.795-1.866,10.818c-2.131,2.788-5.38,4.487-8.646,5.772
							c-7.605,2.993-16.381,4.14-23.868,0.863c-1.332-0.583-2.622-1.311-3.651-2.337c-1.199-1.196-1.985-2.738-2.665-4.288
							c-1.745-3.981-2.915-8.214-3.462-12.526c-0.297-2.339-0.296-5.022,1.39-6.67c0.919-0.899,2.22-1.345,3.087-2.295
							c2.115-2.316,0.645-6.113,1.67-9.078c1.244-3.596,5.704-4.89,9.508-4.815c3.804,0.075,7.759,0.962,11.318-0.383
							c5.182-1.957,7.605-7.862,8.785-13.274c0.325-1.489,1.856-13.355,4.908-11.879c0.892,0.431,0.946,5.739,1.195,6.863
							C446.635,168.779,447.473,171.272,448.572,173.646z"/>
					</g>
				</g>
			</g>
		</g>
	</g>
	<g>
		<g>
			<path style="fill:#2E2E8E;" d="M430.223,390.865c-16.351,20.636-31.166,31.179-50.906,41.619
				c-23.31,12.32-49.68,17.71-75.92,20.4c-1.33,0.14-2.66,0.27-3.99,0.38c0.52-7.46,10.97-15.54,15.6-19.79
				c3.56-3.26,8.86-6.44,12.85-3.72c1.04,0.71,2.02,1.81,3.26,1.65c1.23-0.17,1.9-1.48,2.4-2.61c4.76-10.79,12.83-20.08,22.84-26.32
				c1.98-1.24,4.28-2.4,6.57-1.91c4.5,0.96,5.37,6.91,5.25,11.5c4.39-6.25,8.77-12.5,13.16-18.75c3.82-5.44,7.71-10.95,12.84-15.17
				c5.14-4.22,11.77-7.06,18.36-6.24c1.9,0.23,3.8,0.79,5.29,1.98c4.97,3.98,2.78,11.85,0.17,17.65
				C421.278,388.974,426.043,390.255,430.223,390.865z"/>
			<g>
				<path style="fill:none;stroke:#2E2E8E;stroke-width:0.8981;stroke-miterlimit:10;" d="M307.484,451.38
					c0,0,11.171-40.695,21.262-54.912"/>
				<circle style="fill:#94A5FF;" cx="332.468" cy="390.625" r="7.032"/>
				<path style="fill:none;stroke:#2E2E8E;stroke-width:0.8981;stroke-miterlimit:10;" d="M310.097,399.984
					c0,3.884-3.148,7.032-7.032,7.032c-3.884,0-7.032-3.148-7.032-7.032s3.148-7.032,7.032-7.032
					C306.949,392.951,310.097,396.1,310.097,399.984z"/>
				<path style="fill:none;stroke:#2E2E8E;stroke-width:0.8981;stroke-miterlimit:10;" d="M305.206,449.513
					c0,0-3.994-25.376-2.456-42.497"/>
			</g>
		</g>
		<g>
			<path style="fill:#2E2E8E;" d="M185.82,447.244c-3.75-0.73-7.5-1.52-11.23-2.36c-4.22-0.95-8.43-1.96-12.62-3.05
				c-17.03-4.4-33.78-9.89-50.1-16.45c-7.44-2.99-16.09-6.02-24.34-9.75c-3.44-6.25-5.81-13.01-6.72-20.12
				c-0.79-6.24-0.39-13.95,2.6-19.93c1.73-3.46,4.34-6.34,8.08-8.03c4.39-1.98,8.93-3.99,13.75-4.11
				c7.82-0.19,15.04,4.77,19.62,11.1c4.58,6.34,6.98,13.95,9.31,21.42c4.75-0.39,9.6-0.77,14.19,0.49
				c4.59,1.27,8.92,4.54,10.09,9.15c1.45,5.69-1.43,13.45,3.59,16.49c1.78,1.08,3.97,1.03,6.02,1.35
				C178.64,425.084,184.83,436.424,185.82,447.244z"/>
			<path style="fill:#94A5FF;" d="M161.204,441.98c-17.03-4.4-33.78-9.89-50.1-16.45c-7.44-2.99-16.09-6.02-24.34-9.75
				c-8.9-4.01-17.35-8.85-23.4-15.31c-6.54-6.99-12.09-15.31-16.29-24.27c0.13-0.12,0.26-0.22,0.4-0.33
				c3.81-2.96,7.74-5.99,12.4-7.25c7.55-2.03,15.74,1.08,21.69,6.15c0.37,0.31,0.73,0.64,1.08,0.96
				c5.38,4.96,9.25,11.35,13.03,17.64c4.52-1.5,9.15-3.01,13.9-2.87c4.76,0.14,9.74,2.29,11.97,6.5c2.75,5.18,1.79,13.41,7.39,15.17
				c1.98,0.63,4.1,0.07,6.17-0.11c11.41-0.98,20.56,10.03,23.54,21.09C159.434,436.07,160.034,439.21,161.204,441.98z"/>
			<g>
				<path style="fill:none;stroke:#2E2E8E;stroke-miterlimit:10;" d="M147.462,359.143c0,0,14.509,42.9,20.135,83.654"/>
				<polyline style="fill:none;stroke:#2E2E8E;stroke-miterlimit:10;" points="141.196,371.272 154.096,380.931 158.989,365.839 
									"/>
				<polyline style="fill:none;stroke:#2E2E8E;stroke-miterlimit:10;" points="146.044,388.135 158.944,397.794 163.837,382.702 
									"/>
				<polyline style="fill:none;stroke:#2E2E8E;stroke-miterlimit:10;" points="151.427,411.216 164.327,420.875 169.22,405.783 				
					"/>
				<path style="fill:#EA6A61;" d="M151.543,357.529c0.433,2.511-1.253,4.898-3.764,5.331c-2.511,0.433-4.898-1.252-5.331-3.764
					c-0.433-2.512,1.253-4.898,3.764-5.331C148.723,353.333,151.11,355.018,151.543,357.529z"/>
				<path style="fill:#EA6A61;" d="M159.845,368.718c-2.537,0.238-4.787-1.626-5.025-4.163c-0.238-2.537,1.626-4.787,4.163-5.026
					c2.537-0.238,4.787,1.626,5.026,4.163C164.246,366.23,162.383,368.48,159.845,368.718z"/>
				<path style="fill:#EA6A61;" d="M164.269,387.296c-2.537,0.238-4.787-1.625-5.025-4.163c-0.238-2.537,1.626-4.787,4.163-5.026
					c2.537-0.238,4.787,1.625,5.025,4.163C168.67,384.808,166.806,387.058,164.269,387.296z"/>
				<path style="fill:#EA6A61;" d="M172.599,407.204c-1.266,2.211-4.086,2.977-6.297,1.711c-2.211-1.267-2.977-4.086-1.711-6.297
					c1.266-2.212,4.086-2.978,6.297-1.711C173.1,402.173,173.866,404.993,172.599,407.204z"/>
				<path style="fill:#EA6A61;" d="M141.627,375.866c-2.537,0.238-4.787-1.625-5.025-4.163c-0.238-2.537,1.626-4.787,4.163-5.026
					c2.537-0.238,4.787,1.626,5.025,4.163C146.028,373.378,144.165,375.628,141.627,375.866z"/>
				<path style="fill:#EA6A61;" d="M149.009,391.754c-1.959,1.63-4.868,1.364-6.498-0.594c-1.631-1.959-1.364-4.868,0.594-6.499
					c1.959-1.63,4.868-1.364,6.498,0.594C151.233,387.214,150.967,390.124,149.009,391.754z"/>
				<path style="fill:#EA6A61;" d="M154.354,414.619c-1.959,1.63-4.868,1.364-6.499-0.594c-1.63-1.959-1.364-4.868,0.594-6.499
					c1.959-1.63,4.868-1.364,6.499,0.594C156.579,410.079,156.313,412.989,154.354,414.619z"/>
			</g>
		</g>
	</g>
</g>
</svg>
