<svg fill="#fff" xmlns="http://www.w3.org/2000/svg" xmlns:xlink="http://www.w3.org/1999/xlink" x="0px" y="0px" viewBox="0 0 100 100" style="enable-background:new 0 0 100 100;" xml:space="preserve"><g>	<path d="M50.2,35.5c-0.8,0-1.3-0.2-1.7-0.6c-0.4-0.4-0.6-1-0.6-1.9h-3.6c0,1.5,0.4,2.9,1.3,3.6c1,0.8,2.1,1.3,3.6,1.3v2.3h1.7v-2.3  c1.3-0.2,2.5-0.6,3.4-1.3c0.8-0.8,1.1-1.9,1.1-3c0-1.3-0.4-2.5-1.3-3.2c-0.8-0.8-2.1-1.5-3.8-2.1c-0.8-0.4-1.3-0.8-1.7-1  c-0.2-0.4-0.4-0.8-0.4-1.1c0-0.6,0.2-1,0.4-1.3c0.2-0.4,0.8-0.4,1.3-0.4s1,0.2,1.3,0.6c0.4,0.4,0.6,1,0.6,1.7h3.8  c0-1.3-0.4-2.5-1.1-3.2c-0.8-1-1.9-1.3-3.2-1.5v-2.3h-1.7v2.3c-1.5,0.2-2.7,0.6-3.4,1.3c-1,0.8-1.3,1.9-1.3,3  c0,1.3,0.4,2.5,1.1,3.2c0.8,0.8,2.1,1.3,3.8,2.1c0.8,0.4,1.3,0.6,1.7,1c0.2,0.4,0.4,0.8,0.4,1.3s-0.2,1-0.4,1.1  C51.3,35.5,50.7,35.5,50.2,35.5z"></path>	<path d="M50,47.2c9.7,0,17.5-7.8,17.5-17.5S59.7,12.3,50,12.3c-9.7,0-17.5,7.8-17.5,17.5S40.3,47.2,50,47.2z M50,17  c7,0,12.7,5.7,12.7,12.7S57,42.5,50,42.5s-12.7-5.7-12.7-12.7S43,17,50,17z"></path>	<circle cx="12.9" cy="73.5" r="2.9"></circle>	<path d="M97,55.4c-2.5-6.1-9.1-9.1-15.4-7l-11.2,3.8c-2.9-2.7-6.8-4-10.8-3l-12.4,3.2c-2.7,0.8-5.5,0.2-7.8-1.1  c-3.8-2.1-8-3.2-12.2-3.2H23v-3.8c0-1.3-1.1-2.5-2.5-2.5H5.1c-1.3,0-2.5,1.1-2.5,2.5v41.1c0,1.3,1.1,2.5,2.5,2.5h15.6  c1.3,0,2.5-1.1,2.5-2.5v-6.8h4c2.7,0,5.1,0.6,7.6,1.5l3,1.3c2.9,1.1,5.9,1.9,8.7,1.9c3.2,0,6.5-0.8,9.5-2.3  c11.2-5.5,30.8-15,37.8-18.4C96.8,61.1,98.1,58.1,97,55.4z M18.2,50.3v25.5v7H7.4V46.5h10.8V50.3z M92.2,58.1  c-7,3.4-26.8,12.9-37.8,18.4c-4.6,2.3-9.7,2.3-14.5,0.2l-3.2-1.3c-3-1.3-6.3-2.1-9.5-2.1H23V52.8h4.2c3.4,0,6.7,1,9.7,2.7  c3.4,2.1,7.6,2.7,11.4,1.7l12.4-3.2c3.2-0.8,6.7,1,7.8,4l0.2,0.6l-20.5,8.2c-1.1,0.6-1.9,1.9-1.3,3c0.4,1,1.3,1.5,2.3,1.5  c0.4,0,0.6,0,1-0.2l22.8-9.1c0,0,0,0,0.2,0c0,0,0,0,0.2,0c0,0,0,0,0.2,0c0,0,0,0,0.2,0c0,0,0,0,0.2,0c0,0,0,0,0-0.2c0,0,0,0,0-0.2  c0,0,0,0,0-0.2c0,0,0,0,0-0.2c0,0,0,0,0-0.2c0,0,0,0,0-0.2c0,0,0,0,0-0.2c0,0,0,0,0-0.2c0,0,0,0,0-0.2c0,0,0,0,0-0.2c0,0,0,0,0-0.2  c0,0,0,0,0-0.2c0,0,0,0,0-0.2c0,0,0,0,0-0.2c0,0,0,0,0-0.2c0,0,0,0,0-0.2c0,0,0,0,0-0.2c0,0,0,0,0-0.2c0,0,0,0,0-0.2l-1-2.5  l10.1-3.4c3.8-1.3,7.8,0.6,9.3,4.2v0.2C92.6,57.5,92.6,58.1,92.2,58.1z"></path></g></svg>